<?xml version="1.0" encoding="UTF-8"?>
<svg id="Ebene_2" data-name="Ebene 2" xmlns="http://www.w3.org/2000/svg" viewBox="0 0 40 40">
  <defs>
    <style>
      .cls-1 {
        fill: #fff;
        fill-rule: evenodd;
      }
    </style>
  </defs>
  <path class="cls-1" d="M20,24.29c.47,0,.86-.38,.86-.86V13.5l3.68,3.68c.34,.34,.88,.34,1.21,0s.34-.88,0-1.21l-5.14-5.14c-.33-.34-.88-.34-1.21,0,0,0,0,0,0,0l-5.14,5.14c-.34,.34-.34,.88,0,1.21s.88,.34,1.21,0l3.68-3.68v9.93c0,.47,.38,.86,.86,.86Zm-12,4.29c0-.47,.38-.86,.86-.86H31.14c.47,0,.86,.38,.86,.86s-.38,.86-.86,.86H8.86c-.47,0-.86-.38-.86-.86Z"/>
</svg>