<svg xmlns="http://www.w3.org/2000/svg" width="69.31" height="77">
    <path d="M1032.31 1821.9a55.433 55.433 0 0 1-1.74 13.78 47.621 47.621 0 0 1-5.26 12.68 40.488 40.488 0 0 1-8.75 10.3 31.335 31.335 0 0 1-12.56 6.33v-13.62a14.787 14.787 0 0 0 7-4.6 29.809 29.809 0 0 0 4.77-7.76 40.676 40.676 0 0 0 2.71-9.03 33.708 33.708 0 0 0 .47-8.39h-13.36V1788h26.72v33.9zm41 0a55.433 55.433 0 0 1-1.74 13.78 47.621 47.621 0 0 1-5.26 12.68 40.488 40.488 0 0 1-8.75 10.3 31.335 31.335 0 0 1-12.56 6.33v-13.62a14.787 14.787 0 0 0 7-4.6 29.809 29.809 0 0 0 4.77-7.76 40.676 40.676 0 0 0 2.71-9.03 33.708 33.708 0 0 0 .47-8.39h-13.36V1788h26.72v33.9z"
          transform="translate(-1004 -1788)" fill="#efeeee"/>
</svg>
