<?xml version="1.0" encoding="utf-8"?>
<!-- Generator: Adobe Illustrator 23.0.1, SVG Export Plug-In . SVG Version: 6.00 Build 0)  -->
<svg version="1.1" id="Ebene_1" xmlns="http://www.w3.org/2000/svg" xmlns:xlink="http://www.w3.org/1999/xlink" x="0px" y="0px"
	 viewBox="0 0 30 30" style="enable-background:new 0 0 30 30;" xml:space="preserve">
<style type="text/css">
	.st0{fill:#FFFFFF;}
</style>
<path class="st0" d="M5.8,1.3v27.43c0,0.22,0.18,0.4,0.4,0.4h17.54c0.22,0,0.4-0.18,0.4-0.4V1.3c0-0.22-0.18-0.4-0.4-0.4H6.2
	C5.98,0.9,5.8,1.08,5.8,1.3z M11.46,26.98h-3.2c-0.22,0-0.4-0.18-0.4-0.4v-3.39c0-0.22,0.18-0.4,0.4-0.4h3.2
	c0.22,0,0.4,0.18,0.4,0.4v3.39C11.85,26.8,11.68,26.98,11.46,26.98z M11.46,21.64h-3.2c-0.22,0-0.4-0.18-0.4-0.4v-3.39
	c0-0.22,0.18-0.4,0.4-0.4h3.2c0.22,0,0.4,0.18,0.4,0.4v3.39C11.85,21.46,11.68,21.64,11.46,21.64z M11.46,16.31h-3.2
	c-0.22,0-0.4-0.18-0.4-0.4v-3.39c0-0.22,0.18-0.4,0.4-0.4h3.2c0.22,0,0.4,0.18,0.4,0.4v3.39C11.85,16.13,11.68,16.31,11.46,16.31z
	 M16.57,26.98h-3.2c-0.22,0-0.4-0.18-0.4-0.4v-3.39c0-0.22,0.18-0.4,0.4-0.4h3.2c0.22,0,0.4,0.18,0.4,0.4v3.39
	C16.97,26.8,16.79,26.98,16.57,26.98z M16.57,21.64h-3.2c-0.22,0-0.4-0.18-0.4-0.4v-3.39c0-0.22,0.18-0.4,0.4-0.4h3.2
	c0.22,0,0.4,0.18,0.4,0.4v3.39C16.97,21.46,16.79,21.64,16.57,21.64z M16.57,16.31h-3.2c-0.22,0-0.4-0.18-0.4-0.4v-3.39
	c0-0.22,0.18-0.4,0.4-0.4h3.2c0.22,0,0.4,0.18,0.4,0.4v3.39C16.97,16.13,16.79,16.31,16.57,16.31z M21.68,26.98h-3.2
	c-0.22,0-0.4-0.18-0.4-0.4v-3.39c0-0.22,0.18-0.4,0.4-0.4h3.2c0.22,0,0.4,0.18,0.4,0.4v3.39C22.08,26.8,21.9,26.98,21.68,26.98z
	 M21.68,21.64h-3.2c-0.22,0-0.4-0.18-0.4-0.4v-3.39c0-0.22,0.18-0.4,0.4-0.4h3.2c0.22,0,0.4,0.18,0.4,0.4v3.39
	C22.08,21.46,21.9,21.64,21.68,21.64z M21.68,16.31h-3.2c-0.22,0-0.4-0.18-0.4-0.4v-3.39c0-0.22,0.18-0.4,0.4-0.4h3.2
	c0.22,0,0.4,0.18,0.4,0.4v3.39C22.08,16.13,21.9,16.31,21.68,16.31z M21.68,9.98H8.25c-0.22,0-0.4-0.18-0.4-0.4V3.46
	c0-0.22,0.18-0.4,0.4-0.4h13.43c0.22,0,0.4,0.18,0.4,0.4v6.12C22.08,9.8,21.9,9.98,21.68,9.98z"/>
</svg>
